<?xml version="1.0" encoding="utf-8"?>
<!-- Generator: Adobe Illustrator 21.1.0, SVG Export Plug-In . SVG Version: 6.00 Build 0)  -->
<svg version="1.1"
	 id="svg2" inkscape:output_extension="org.inkscape.output.svg.inkscape" inkscape:version="0.47 r22583" sodipodi:docname="vimeo.svg" sodipodi:version="0.32" xmlns:cc="http://creativecommons.org/ns#" xmlns:dc="http://purl.org/dc/elements/1.1/" xmlns:inkscape="http://www.inkscape.org/namespaces/inkscape" xmlns:rdf="http://www.w3.org/1999/02/22-rdf-syntax-ns#" xmlns:sodipodi="http://sodipodi.sourceforge.net/DTD/sodipodi-0.dtd" xmlns:svg="http://www.w3.org/2000/svg"
	 xmlns="http://www.w3.org/2000/svg" xmlns:xlink="http://www.w3.org/1999/xlink" x="0px" y="0px" viewBox="0 0 256 256"
	 style="enable-background:new 0 0 256 256;" xml:space="preserve">
<style type="text/css">
	.st0{fill:none;}
	.st1{fill:#FFFFFF;}
</style>
<rect x="0" y="50.6" class="st0" width="256" height="128.9"/>
<rect x="0" y="0" class="st0" width="256" height="256"/>
<g>
	<path class="st1" d="M245.5,104.9c0,13.8-2.2,26.5-6.6,37.9c-4.4,11.5-10.6,20.5-18.7,27c-8.1,6.5-17.4,9.8-28.1,9.8
		c-7.1,0-13.4-1.7-18.8-5.1c-5.5-3.4-9.4-7.9-11.8-13.5h-2.3c-10.4,12.4-23.5,18.6-39.6,18.6c-17,0-30.4-5.1-40.1-15.3
		C69.7,154,64.8,140,64.8,122.3c0-20.2,6.4-36.5,19.3-48.9c12.9-12.4,29.6-18.6,50.4-18.6c8.2,0,17.3,0.8,27.3,2.4
		c9.9,1.6,18.1,3.5,24.5,5.7l-3.3,70.4c0,13.3,3.6,20,10.9,20c6.1,0,11-4.5,14.7-13.5c3.6-9,5.5-20.7,5.5-35.2
		c0-15.4-3.2-29.1-9.6-40.9c-6.4-11.8-15.5-20.9-27.1-27.1c-11.7-6.2-25-9.4-39.9-9.4c-19.4,0-36.2,4-50.5,11.9
		c-14.3,8-25.3,19.4-32.9,34.5c-7.6,15-11.4,32.4-11.4,52c0,26.5,7.1,46.8,21.2,60.9c14.1,14.1,34.7,21.2,61.5,21.2
		c10.2,0,21.3-1.1,33.5-3.4c12.2-2.3,24.2-5.5,36-9.9v27.6c-20.5,8.7-43.3,13.1-68.3,13.1c-36.5,0-64.9-9.6-85.3-28.8
		c-20.4-19.2-30.6-45.8-30.6-80c0-23.7,5.2-45.2,15.6-64.5c10.4-19.3,25.2-34.5,44.5-45.5C89.8,5.5,112,0,137,0
		c21.1,0,40,4.3,56.5,12.9c16.6,8.6,29.4,20.9,38.4,36.8C241,65.7,245.5,84.1,245.5,104.9z M98.1,122.9c0,20.2,8.2,30.4,24.7,30.4
		c8.6,0,15.2-3,19.7-9.1c4.5-6.1,7.2-16,8.2-29.7l1.9-31.8c-4.9-1.1-10.4-1.6-16.5-1.6c-12,0-21.3,3.7-28,11.2
		C101.5,99.7,98.1,109.9,98.1,122.9z"/>
</g>
</svg>
