<?xml version="1.0" encoding="utf-8"?>
<!-- Generator: Adobe Illustrator 21.1.0, SVG Export Plug-In . SVG Version: 6.00 Build 0)  -->
<svg version="1.1"
	 id="svg2" inkscape:output_extension="org.inkscape.output.svg.inkscape" inkscape:version="0.47 r22583" sodipodi:docname="vimeo.svg" sodipodi:version="0.32" xmlns:cc="http://creativecommons.org/ns#" xmlns:dc="http://purl.org/dc/elements/1.1/" xmlns:inkscape="http://www.inkscape.org/namespaces/inkscape" xmlns:rdf="http://www.w3.org/1999/02/22-rdf-syntax-ns#" xmlns:sodipodi="http://sodipodi.sourceforge.net/DTD/sodipodi-0.dtd" xmlns:svg="http://www.w3.org/2000/svg"
	 xmlns="http://www.w3.org/2000/svg" xmlns:xlink="http://www.w3.org/1999/xlink" x="0px" y="0px" viewBox="0 0 256 256"
	 style="enable-background:new 0 0 256 256;" xml:space="preserve">
<style type="text/css">
	.st0{fill:#FFFFFF;}
	.st1{fill:none;}
</style>
<g id="surface1">
	<path class="st0" d="M18.5,50.7h60.5c5.8,0,11.5,0.8,16.7,2c5.1,0.7,9,2.6,12.9,5s6.5,5.8,8.5,9.5c1.9,3.9,3.1,9.1,3.1,15
		c0,6.5-1.5,11.6-4.6,16c-2.6,3.9-7.2,7.7-12.9,10.2c7.7,2.6,13.7,6.5,17.5,12.3c4.6,5.8,5.8,12.3,6.5,22c0,6.5-1.5,12.3-4.1,16.7
		c-2.6,4.6-5.8,8.5-10.2,11.6c-4.6,2.6-9,5.1-14.7,6.5c-5.1,1.2-11.2,1.9-16.9,1.9H18.5V50.7z M166.6,56.4h51.6
		c3.7,0,6.5,2.8,6.5,6.5c0,3.7-2.8,6.5-6.5,6.5h-51.6c-3.7,0-6.5-2.8-6.5-6.5C160.2,59.4,163.1,56.4,166.6,56.4z M50.7,69.4v32.2
		h19.9c16,0,18.7-9,18.7-16c0-5.1-1.9-16-20.6-16h-18V69.4z M193,82.2c41.9,0,44.4,36.6,44.4,58.1h-66.4c0.7,5.8,4.6,19.9,22.5,19.9
		c16.9,0,20.8-13.4,20.8-13.4h22.5c0,0-8.5,32.2-43.9,32.2c-15.4,0-46.9-8.3-46.9-48.3C146,87.4,181.5,82.2,193,82.2z M192.5,101.6
		c-4.6,0-7.7,0.8-10.2,2c-2.6,1.2-4.6,3.1-6.5,5c-1.2,1.9-2.6,3.9-3.1,6.5c-0.7,1.9-1.5,3.9-1.5,6.5h41.2
		c-0.7-6.5-2.7-11.5-5.8-14.7C203.3,103.6,198.8,101.6,192.5,101.6z M50.7,120.8v38.7h22c16.9,0,22.5-11.6,22.5-19.4
		c0-7.7-3.2-19.4-22-19.4L50.7,120.8L50.7,120.8z"/>
</g>
<rect y="50.6" class="st1" width="256" height="128.9"/>
<rect class="st1" width="256" height="256"/>
</svg>
