<?xml version="1.0" encoding="utf-8"?>
<!-- Generator: Adobe Illustrator 21.1.0, SVG Export Plug-In . SVG Version: 6.00 Build 0)  -->
<svg version="1.1"
	 id="svg2" inkscape:output_extension="org.inkscape.output.svg.inkscape" inkscape:version="0.47 r22583" sodipodi:docname="vimeo.svg" sodipodi:version="0.32" xmlns:cc="http://creativecommons.org/ns#" xmlns:dc="http://purl.org/dc/elements/1.1/" xmlns:inkscape="http://www.inkscape.org/namespaces/inkscape" xmlns:rdf="http://www.w3.org/1999/02/22-rdf-syntax-ns#" xmlns:sodipodi="http://sodipodi.sourceforge.net/DTD/sodipodi-0.dtd" xmlns:svg="http://www.w3.org/2000/svg"
	 xmlns="http://www.w3.org/2000/svg" xmlns:xlink="http://www.w3.org/1999/xlink" x="0px" y="0px" viewBox="0 0 256 256"
	 style="enable-background:new 0 0 256 256;" xml:space="preserve">
<style type="text/css">
	.st0{fill:#FFFFFF;}
	.st1{fill:none;}
</style>
<g id="layer1" transform="translate(-200.55198,-393.96227)" inkscape:groupmode="layer" inkscape:label="Layer 1">
	<g id="g3019" transform="matrix(1.018827,0,0,-1.018827,170.5996,498.03288)">
		<path id="path28" inkscape:connector-curvature="0" class="st0" d="M104.8-74V44.6H65.2V-74H104.8z M85.1,60.9
			c13.7,0,22.3,9.2,22.3,20.4c-0.3,11.7-8.5,20.4-22.1,20.4S63,93,63,81.4C63,70,71.5,61,84.8,61L85.1,60.9L85.1,60.9z"/>
		<path id="path30" inkscape:connector-curvature="0" class="st0" d="M126.7-74h39.4v66.3c0,3.6,0.3,7.1,1.2,9.6
			c2.9,7.1,9.3,14.4,20.3,14.4c14.3,0,20-10.8,20-26.9V-74h39.5v68c0,36.5-19.4,53.4-45.4,53.4c-21.2,0-30.7-11.9-35.8-20.1h0.3
			v17.2h-39.5C127.1,33.5,126.7-74,126.7-74L126.7-74z"/>
	</g>
</g>
<rect y="51.6" class="st1" width="256" height="128.9"/>
<rect y="1" class="st1" width="256" height="256"/>
</svg>
