<?xml version="1.0" encoding="utf-8"?>
<!-- Generator: Adobe Illustrator 21.1.0, SVG Export Plug-In . SVG Version: 6.00 Build 0)  -->
<svg version="1.1"
	 id="svg2" inkscape:output_extension="org.inkscape.output.svg.inkscape" inkscape:version="0.47 r22583" sodipodi:docname="vimeo.svg" sodipodi:version="0.32" xmlns:cc="http://creativecommons.org/ns#" xmlns:dc="http://purl.org/dc/elements/1.1/" xmlns:inkscape="http://www.inkscape.org/namespaces/inkscape" xmlns:rdf="http://www.w3.org/1999/02/22-rdf-syntax-ns#" xmlns:sodipodi="http://sodipodi.sourceforge.net/DTD/sodipodi-0.dtd" xmlns:svg="http://www.w3.org/2000/svg"
	 xmlns="http://www.w3.org/2000/svg" xmlns:xlink="http://www.w3.org/1999/xlink" x="0px" y="0px" viewBox="0 0 256 256"
	 style="enable-background:new 0 0 256 256;" xml:space="preserve">
<style type="text/css">
	.st0{fill:#FFFFFF;}
	.st1{fill:none;}
</style>
<g id="layer1" transform="translate(-373.642,-318.344)" inkscape:groupmode="layer" inkscape:label="Layer 1">
	<path id="path9951" sodipodi:nodetypes="ccccsccccccc" class="st0" d="M428.9,403.8c15.9-14.3,30.2-39.3,46.7-34
		c27.4,7.1,15.5,59.5,31.1,83.9c21.3-12,35.1-37.3,29.4-50.4c-1.3-3.7,0.3-12.8-17.2-4.9c-4.6,2.1-4.3-5.9-3.6-7
		c16.2-17.8,25.5-25.2,36.6-24.8c9.3,1.5,25.7,12,22.7,37.1c-6.2,37.4-61.1,96-79.4,93.9c-21,4.7-31.7-61.7-47.4-92.9l-14.5,5.6
		C427.3,411.4,428.2,407.5,428.9,403.8L428.9,403.8z"/>
</g>
<rect y="51.6" class="st1" width="256" height="128.9"/>
<rect y="1" class="st1" width="256" height="256"/>
</svg>
