<?xml version="1.0" encoding="utf-8"?>
<!-- Generator: Adobe Illustrator 21.1.0, SVG Export Plug-In . SVG Version: 6.00 Build 0)  -->
<svg version="1.1"
	 id="svg2" inkscape:output_extension="org.inkscape.output.svg.inkscape" inkscape:version="0.47 r22583" sodipodi:docname="vimeo.svg" sodipodi:version="0.32" xmlns:cc="http://creativecommons.org/ns#" xmlns:dc="http://purl.org/dc/elements/1.1/" xmlns:inkscape="http://www.inkscape.org/namespaces/inkscape" xmlns:rdf="http://www.w3.org/1999/02/22-rdf-syntax-ns#" xmlns:sodipodi="http://sodipodi.sourceforge.net/DTD/sodipodi-0.dtd" xmlns:svg="http://www.w3.org/2000/svg"
	 xmlns="http://www.w3.org/2000/svg" xmlns:xlink="http://www.w3.org/1999/xlink" x="0px" y="0px" viewBox="0 0 256 256"
	 style="enable-background:new 0 0 256 256;" xml:space="preserve">
<style type="text/css">
	.st0{fill:#FFFFFF;}
	.st1{fill:none;}
</style>
<g>
	<g>
		<path class="st0" d="M86.2,57.5c-2.6-4.6-6.1-7-10.2-7H39c-2.4,0-4,0.7-5,2.4c-1.1,1.5-1.1,3.5,0.1,5.7l25,43.2
			c0.1,0.1,0.1,0.1,0,0.1l-39.2,69.3c-1,2-1,3.9,0,5.6c1,1.7,2.6,2.6,4.7,2.6h36.9c3.9,0,7.2-2.4,10.1-7.1
			c25.5-45.2,38.7-68.6,39.8-70.5L86.2,57.5z"/>
		<path class="st0" d="M236.1,8.1c1.1-2.1,1.1-4.1,0-5.7c-0.9-1.5-2.5-2.4-4.7-2.4h-37.3c-4,0-7.4,2.4-9.9,7
			c-52.9,93.9-80.3,142.4-82.1,145.8l52.4,96.2c2.5,4.6,5.9,7,10.2,7h37c2.2,0,3.9-0.7,5-2.4c1-1.7,1-3.6-0.1-5.7l-52-95.1v-0.1
			L236.1,8.1z"/>
	</g>
</g>
<rect y="51.6" class="st1" width="256" height="128.9"/>
<rect y="1" class="st1" width="256" height="256"/>
</svg>
